<?xml version="1.0" encoding="UTF-8"?>
<svg version="1.1" xmlns="http://www.w3.org/2000/svg" width="512" height="512">
<path d="M0 0 C0.8850119 0.00215515 1.7700238 0.0043103 2.68185425 0.00653076 C15.45622997 0.05647521 27.82313258 0.40645297 40.3125 3.3125 C41.6123584 3.59456299 41.6123584 3.59456299 42.93847656 3.88232422 C95.4646954 15.44545155 140.80130549 47.17200297 169.84375 92.359375 C183.18237354 113.55296573 191.92229786 135.85894962 197.3125 160.3125 C197.49039062 161.07369141 197.66828125 161.83488281 197.8515625 162.61914062 C203.70282119 188.5086384 202.44477331 219.66524638 196.3125 245.3125 C196.07644043 246.30024414 195.84038086 247.28798828 195.59716797 248.30566406 C182.12924612 302.47258639 147.51044365 346.16707747 100.171875 374.84375 C81.54618075 385.82054882 61.35830385 392.67345433 40.3125 397.3125 C39.55130859 397.49039062 38.79011719 397.66828125 38.00585938 397.8515625 C12.1163616 403.70282119 -19.04024638 402.44477331 -44.6875 396.3125 C-45.67524414 396.07644043 -46.66298828 395.84038086 -47.68066406 395.59716797 C-99.92283174 382.60781207 -143.27154064 349.68448448 -171.6875 304.3125 C-172.06616211 303.71308594 -172.44482422 303.11367188 -172.83496094 302.49609375 C-184.6628301 283.49764302 -191.96278323 262.08587343 -196.6875 240.3125 C-196.86394043 239.55420898 -197.04038086 238.79591797 -197.22216797 238.01464844 C-203.07730667 212.1220529 -201.82076383 180.96389632 -195.6875 155.3125 C-195.45144043 154.32475586 -195.21538086 153.33701172 -194.97216797 152.31933594 C-182.33763724 101.50424716 -150.23035741 57.01197626 -105.625 29.5 C-73.11944743 10.0029242 -37.95493467 -0.16636171 0 0 Z " fill="#EFDA4E" transform="translate(255.6875,55.6875)"/>
<path d="M0 0 C0.8041333 0.15686279 1.6082666 0.31372559 2.43676758 0.4753418 C8.10703884 1.70238026 13.16309132 3.71934431 18.375 6.25 C14.1744769 25.40693112 14.1744769 25.40693112 11.375 33.25 C9.375 34.25 9.375 34.25 6.07421875 33.2890625 C4.7343892 32.82512152 3.39722944 32.35341589 2.0625 31.875 C-5.67803816 29.14216209 -12.26147527 28.0277431 -20.4375 27.9375 C-21.30181641 27.90849609 -22.16613281 27.87949219 -23.05664062 27.84960938 C-30.39724237 27.77758838 -35.584794 29.58981975 -41.125 34.4375 C-43.25583434 38.43281439 -43.27239194 41.81536522 -42.625 46.25 C-40.31375058 52.23205731 -34.94279346 55.19547034 -29.34204102 57.74365234 C-24.71894644 59.68559274 -20.05719673 61.53305447 -15.39038086 63.36694336 C0.83043956 69.77384601 14.58881412 77.55120081 22.46484375 93.890625 C26.27844332 103.77652259 25.87641453 117.45449062 22.375 127.3125 C16.73478641 139.74624816 7.75592386 147.7904866 -4.75 153 C-29.6149428 161.76055543 -55.38203263 159.89169518 -79.625 150.25 C-80.285 149.92 -80.945 149.59 -81.625 149.25 C-81.0123141 145.30948902 -80.23276238 141.48790859 -79.21484375 137.6328125 C-78.94736328 136.61445313 -78.67988281 135.59609375 -78.40429688 134.546875 C-77.98760742 132.97679687 -77.98760742 132.97679687 -77.5625 131.375 C-77.28083984 130.30507813 -76.99917969 129.23515625 -76.70898438 128.1328125 C-76.01672274 125.50456493 -75.32199076 122.87699665 -74.625 120.25 C-74.05072266 120.44190918 -73.47644531 120.63381836 -72.88476562 120.83154297 C-58.55873244 125.95712497 -58.55873244 125.95712497 -43.625 128.25 C-42.37332031 128.3015625 -41.12164062 128.353125 -39.83203125 128.40625 C-30.82320411 128.66113699 -22.82944073 128.75370061 -15.625 122.75 C-12.79169723 119.20837154 -12.40894256 116.35732567 -12.25 111.9375 C-12.17652344 110.55111328 -12.17652344 110.55111328 -12.1015625 109.13671875 C-12.81287103 105.21390531 -14.74517018 102.86199341 -17.625 100.25 C-20.63368329 98.26968442 -20.63368329 98.26968442 -24 96.75 C-24.60577881 96.45867187 -25.21155762 96.16734375 -25.83569336 95.8671875 C-30.21224318 93.80049902 -34.67749502 92.00125955 -39.1875 90.25 C-55.49815756 83.88553378 -69.96547232 75.06235069 -78 58.9375 C-81.44773001 49.52534254 -81.19816566 37.191041 -77.8125 27.8125 C-71.62476678 15.40227101 -61.10863928 6.87446237 -48.29296875 1.9765625 C-32.7675004 -3.12027344 -15.94414605 -3.14862758 0 0 Z " fill="#333430" transform="translate(333.625,177.75)"/>
<path d="M0 0 C11.22 0 22.44 0 34 0 C34.09065396 14.47429975 34.16391936 28.94840849 34.20724869 43.42292881 C34.22778398 50.14525656 34.25572908 56.86739406 34.30175781 63.58959961 C34.34547166 70.08651161 34.36919093 76.58322677 34.37950897 83.08027458 C34.38685466 85.54918449 34.40119807 88.01808459 34.42292023 90.48690987 C34.58604836 109.80954362 34.05797918 129.24571976 19.984375 144.19140625 C6.99542565 156.02975969 -9.48601853 157.87831078 -26.2890625 157.375 C-33.06704803 157.02499479 -39.4782388 155.92897162 -46 154 C-45.45089248 144.17286886 -43.81857774 134.6533309 -42 125 C-41.35675781 125.144375 -40.71351563 125.28875 -40.05078125 125.4375 C-30.30033356 127.44044503 -20.02939969 129.02512865 -10.87109375 124.26953125 C-5.54129141 120.65327705 -2.79442852 115.72715655 -1.46595764 109.49447632 C-0.84649095 104.84874997 -0.8224706 100.27056461 -0.79467773 95.58837891 C-0.78477814 94.55362427 -0.77487854 93.51886963 -0.76467896 92.45275879 C-0.73317678 89.0440497 -0.70835118 85.63532669 -0.68359375 82.2265625 C-0.66301448 79.8585881 -0.64201775 77.4906173 -0.62062073 75.12265015 C-0.56550057 68.89860957 -0.51604699 62.67453639 -0.46777344 56.45043945 C-0.41748492 50.09583647 -0.36183725 43.74128066 -0.30664062 37.38671875 C-0.19918205 24.92451802 -0.09820524 12.46227708 0 0 Z " fill="#323330" transform="translate(194,179)"/>
</svg>
